<?xml version="1.0" encoding="UTF-8" standalone="no"?>
<!-- Created with Inkscape (http://www.inkscape.org/) -->

<svg
   width="48"
   height="48"
   viewBox="0 0 12.7 12.7"
   version="1.1"
   id="svg1"
   inkscape:version="1.4 (86a8ad7, 2024-10-11)"
   sodipodi:docname="icon.svg"
   inkscape:export-filename="icon.png"
   inkscape:export-xdpi="96"
   inkscape:export-ydpi="96"
   xmlns:inkscape="http://www.inkscape.org/namespaces/inkscape"
   xmlns:sodipodi="http://sodipodi.sourceforge.net/DTD/sodipodi-0.dtd"
   xmlns:xlink="http://www.w3.org/1999/xlink"
   xmlns="http://www.w3.org/2000/svg"
   xmlns:svg="http://www.w3.org/2000/svg">
  <sodipodi:namedview
     id="namedview1"
     pagecolor="#ffffff"
     bordercolor="#000000"
     borderopacity="0.25"
     inkscape:showpageshadow="2"
     inkscape:pageopacity="0.0"
     inkscape:pagecheckerboard="0"
     inkscape:deskcolor="#d1d1d1"
     inkscape:document-units="mm"
     inkscape:zoom="15.581903"
     inkscape:cx="19.34937"
     inkscape:cy="24.868593"
     inkscape:window-width="1920"
     inkscape:window-height="991"
     inkscape:window-x="-9"
     inkscape:window-y="-9"
     inkscape:window-maximized="1"
     inkscape:current-layer="svg1" />
  <defs
     id="defs1">
    <inkscape:path-effect
       effect="bspline"
       id="path-effect40"
       is_visible="true"
       lpeversion="1.3"
       weight="33.333333"
       steps="2"
       helper_size="0"
       apply_no_weight="true"
       apply_with_weight="true"
       only_selected="false"
       uniform="false" />
    <inkscape:path-effect
       effect="bspline"
       id="path-effect39"
       is_visible="true"
       lpeversion="1.3"
       weight="33.333333"
       steps="2"
       helper_size="0"
       apply_no_weight="true"
       apply_with_weight="true"
       only_selected="false"
       uniform="false" />
    <inkscape:path-effect
       effect="bspline"
       id="path-effect38"
       is_visible="true"
       lpeversion="1.3"
       weight="33.333333"
       steps="2"
       helper_size="0"
       apply_no_weight="true"
       apply_with_weight="true"
       only_selected="false"
       uniform="false" />
    <inkscape:path-effect
       effect="bspline"
       id="path-effect37"
       is_visible="true"
       lpeversion="1.3"
       weight="33.333333"
       steps="2"
       helper_size="0"
       apply_no_weight="true"
       apply_with_weight="true"
       only_selected="false"
       uniform="false" />
    <inkscape:path-effect
       effect="bspline"
       id="path-effect36"
       is_visible="true"
       lpeversion="1.3"
       weight="33.333333"
       steps="2"
       helper_size="0"
       apply_no_weight="true"
       apply_with_weight="true"
       only_selected="false"
       uniform="false" />
    <linearGradient
       id="linearGradient35"
       inkscape:collect="always">
      <stop
         style="stop-color:#696969;stop-opacity:1;"
         offset="0"
         id="stop35" />
      <stop
         style="stop-color:#656565;stop-opacity:1;"
         offset="1"
         id="stop36" />
    </linearGradient>
    <inkscape:path-effect
       effect="bspline"
       id="path-effect35"
       is_visible="true"
       lpeversion="1.3"
       weight="33.333333"
       steps="2"
       helper_size="0"
       apply_no_weight="true"
       apply_with_weight="true"
       only_selected="false"
       uniform="false" />
    <inkscape:path-effect
       effect="bspline"
       id="path-effect34"
       is_visible="true"
       lpeversion="1.3"
       weight="33.333333"
       steps="2"
       helper_size="0"
       apply_no_weight="true"
       apply_with_weight="true"
       only_selected="false"
       uniform="false" />
    <inkscape:path-effect
       effect="bspline"
       id="path-effect33"
       is_visible="true"
       lpeversion="1.3"
       weight="33.333333"
       steps="2"
       helper_size="0"
       apply_no_weight="true"
       apply_with_weight="true"
       only_selected="false"
       uniform="false" />
    <inkscape:path-effect
       effect="bspline"
       id="path-effect32"
       is_visible="true"
       lpeversion="1.3"
       weight="33.333333"
       steps="2"
       helper_size="0"
       apply_no_weight="true"
       apply_with_weight="true"
       only_selected="false"
       uniform="false" />
    <linearGradient
       id="linearGradient30"
       inkscape:collect="always">
      <stop
         style="stop-color:#c9ffc9;stop-opacity:1;"
         offset="0.23624596"
         id="stop30" />
      <stop
         style="stop-color:#48ff48;stop-opacity:1;"
         offset="0.81877023"
         id="stop31" />
    </linearGradient>
    <linearGradient
       id="linearGradient27"
       inkscape:collect="always">
      <stop
         style="stop-color:#cdffcd;stop-opacity:1;"
         offset="0.38511327"
         id="stop27" />
      <stop
         style="stop-color:#55ff55;stop-opacity:1;"
         offset="1"
         id="stop28" />
    </linearGradient>
    <inkscape:path-effect
       effect="bspline"
       id="path-effect27"
       is_visible="true"
       lpeversion="1.3"
       weight="33.333333"
       steps="2"
       helper_size="0"
       apply_no_weight="true"
       apply_with_weight="true"
       only_selected="false"
       uniform="false" />
    <inkscape:path-effect
       effect="bspline"
       id="path-effect26"
       is_visible="true"
       lpeversion="1.3"
       weight="33.333333"
       steps="2"
       helper_size="0"
       apply_no_weight="true"
       apply_with_weight="true"
       only_selected="false"
       uniform="false" />
    <inkscape:path-effect
       effect="bspline"
       id="path-effect25"
       is_visible="true"
       lpeversion="1.3"
       weight="33.333333"
       steps="2"
       helper_size="0"
       apply_no_weight="true"
       apply_with_weight="true"
       only_selected="false"
       uniform="false" />
    <inkscape:path-effect
       effect="bspline"
       id="path-effect24"
       is_visible="true"
       lpeversion="1.3"
       weight="33.333333"
       steps="2"
       helper_size="0"
       apply_no_weight="true"
       apply_with_weight="true"
       only_selected="false"
       uniform="false" />
    <inkscape:path-effect
       effect="bspline"
       id="path-effect21"
       is_visible="true"
       lpeversion="1.3"
       weight="33.333333"
       steps="2"
       helper_size="0"
       apply_no_weight="true"
       apply_with_weight="true"
       only_selected="false"
       uniform="false" />
    <inkscape:path-effect
       effect="bspline"
       id="path-effect20"
       is_visible="true"
       lpeversion="1.3"
       weight="33.333333"
       steps="2"
       helper_size="0"
       apply_no_weight="true"
       apply_with_weight="true"
       only_selected="false"
       uniform="false" />
    <inkscape:path-effect
       effect="bspline"
       id="path-effect19"
       is_visible="true"
       lpeversion="1.3"
       weight="33.333333"
       steps="2"
       helper_size="0"
       apply_no_weight="true"
       apply_with_weight="true"
       only_selected="false"
       uniform="false" />
    <inkscape:path-effect
       effect="bspline"
       id="path-effect18"
       is_visible="true"
       lpeversion="1.3"
       weight="33.333333"
       steps="2"
       helper_size="0"
       apply_no_weight="true"
       apply_with_weight="true"
       only_selected="false"
       uniform="false" />
    <inkscape:path-effect
       effect="bspline"
       id="path-effect17"
       is_visible="true"
       lpeversion="1.3"
       weight="33.333333"
       steps="2"
       helper_size="0"
       apply_no_weight="true"
       apply_with_weight="true"
       only_selected="false"
       uniform="false" />
    <inkscape:path-effect
       effect="bspline"
       id="path-effect16"
       is_visible="true"
       lpeversion="1.3"
       weight="33.333333"
       steps="2"
       helper_size="0"
       apply_no_weight="true"
       apply_with_weight="true"
       only_selected="false"
       uniform="false" />
    <inkscape:path-effect
       effect="bspline"
       id="path-effect15"
       is_visible="true"
       lpeversion="1.3"
       weight="33.333333"
       steps="2"
       helper_size="0"
       apply_no_weight="true"
       apply_with_weight="true"
       only_selected="false"
       uniform="false" />
    <inkscape:path-effect
       effect="bspline"
       id="path-effect13"
       is_visible="true"
       lpeversion="1.3"
       weight="33.333333"
       steps="2"
       helper_size="0"
       apply_no_weight="true"
       apply_with_weight="true"
       only_selected="false"
       uniform="false" />
    <inkscape:path-effect
       effect="bspline"
       id="path-effect7"
       is_visible="true"
       lpeversion="1.3"
       weight="33.333333"
       steps="2"
       helper_size="0"
       apply_no_weight="true"
       apply_with_weight="true"
       only_selected="false"
       uniform="false" />
    <inkscape:path-effect
       effect="bspline"
       id="path-effect6"
       is_visible="true"
       lpeversion="1.3"
       weight="33.333333"
       steps="2"
       helper_size="0"
       apply_no_weight="true"
       apply_with_weight="true"
       only_selected="false"
       uniform="false" />
    <inkscape:path-effect
       effect="bspline"
       id="path-effect5"
       is_visible="true"
       lpeversion="1.3"
       weight="33.333333"
       steps="2"
       helper_size="0"
       apply_no_weight="true"
       apply_with_weight="true"
       only_selected="false"
       uniform="false" />
    <linearGradient
       id="linearGradient4"
       inkscape:collect="always">
      <stop
         style="stop-color:#666666;stop-opacity:1;"
         offset="0.44012946"
         id="stop4" />
      <stop
         style="stop-color:#3d3d3d;stop-opacity:1;"
         offset="1"
         id="stop5" />
    </linearGradient>
    <inkscape:path-effect
       effect="bspline"
       id="path-effect3"
       is_visible="true"
       lpeversion="1.3"
       weight="33.333333"
       steps="2"
       helper_size="0"
       apply_no_weight="true"
       apply_with_weight="true"
       only_selected="false"
       uniform="false" />
    <inkscape:path-effect
       effect="bspline"
       id="path-effect1"
       is_visible="true"
       lpeversion="1.3"
       weight="33.333333"
       steps="2"
       helper_size="0"
       apply_no_weight="true"
       apply_with_weight="true"
       only_selected="false"
       uniform="false" />
    <linearGradient
       inkscape:collect="always"
       xlink:href="#linearGradient4"
       id="linearGradient5"
       x1="17.584501"
       y1="14.953244"
       x2="50.44313"
       y2="48.838707"
       gradientUnits="userSpaceOnUse" />
    <radialGradient
       inkscape:collect="always"
       xlink:href="#linearGradient30"
       id="radialGradient31"
       cx="4.8576317"
       cy="2.784251"
       fx="4.8576317"
       fy="2.784251"
       r="0.70181924"
       gradientTransform="matrix(1,0,0,0.79654264,0,0.63370249)"
       gradientUnits="userSpaceOnUse" />
    <radialGradient
       inkscape:collect="always"
       xlink:href="#linearGradient27"
       id="radialGradient32"
       cx="3.2453816"
       cy="2.5280371"
       fx="3.2453816"
       fy="2.5280371"
       r="0.35515875"
       gradientTransform="matrix(1,0,0,1.0469667,0,-0.12617393)"
       gradientUnits="userSpaceOnUse" />
    <linearGradient
       inkscape:collect="always"
       xlink:href="#linearGradient35"
       id="linearGradient36"
       x1="4.1929579"
       y1="11.125666"
       x2="8.4436979"
       y2="2.0099247"
       gradientUnits="userSpaceOnUse" />
  </defs>
  <path
     style="fill:#5b5b5b;fill-opacity:1;stroke-width:0.264583;opacity:0.33"
     d="m 2.1833613,11.42907 c -0.298565,0.377805 -0.077822,0.570248 0.3127239,0.70043 0.3905457,0.130182 0.9508884,0.198102 1.8927364,0.186855 0.941848,-0.01125 0.7363412,0.0028 2.0837672,-0.151551 1.347426,-0.154345 2.3458414,-0.337838 3.266081,-0.662798 0.9202392,-0.324959 1.6720022,-0.76488 2.0601732,-1.337121 0.388171,-0.5722403 0.397971,-1.130848 0.219077,-1.4916162 -0.178893,-0.3607682 -0.511026,-0.3982671 -0.748748,-0.3982671 -0.237723,-1e-7 -0.362244,0.03962 -0.492426,0.073581 -0.130181,0.03396 -0.266023,0.062261 -1.376808,0.3240383 C 8.289153,8.9343979 7.6858731,9.0776462 4.8534179,10.223161 2.0209627,11.368676 2.4819263,11.051265 2.1833613,11.42907 Z"
     id="path39"
     inkscape:path-effect="#path-effect40"
     inkscape:original-d="m 1.6640564,11.614435 c 0.22074,0.19244 0.4414832,0.384883 0.6622264,0.577326 0.5603482,0.06792 1.1206908,0.135841 1.6810364,0.203762 1.3233501,-0.09042 1.1178432,-0.07638 2.7338071,-0.186782 1.0788884,-0.198283 2.0773039,-0.381775 3.1413309,-0.577326 0.7764518,-0.454369 1.5282148,-0.894289 2.2923228,-1.341434 0.01223,-0.6973364 0.02203,-1.2559441 0.03396,-1.9357386 -0.369713,-0.041742 -0.701846,-0.079241 -1.05277,-0.1188611 -0.124521,0.03962 -0.249042,0.079241 -0.373564,0.1188612 -0.135841,0.0283 -0.271683,0.056601 -0.407524,0.084901 C 8.289153,8.9343979 7.6014598,8.7221457 4.1176905,9.9249078 1.9017789,11.19559 2.4819264,11.051265 1.6640564,11.614435 Z"
     sodipodi:nodetypes="cccccccccccc" />
  <path
     style="fill:url(#linearGradient36);stroke-width:0.264583"
     d="M 2.8696483,3.1922713 C 2.9545491,2.9319089 3.03945,2.6715463 3.1979315,2.3432631 3.3564131,2.0149799 3.5900572,1.6160755 4.0060465,1.4221345 4.4220358,1.2281935 5.0581521,1.2341385 5.580572,1.2963958 6.102992,1.3586532 6.6095495,1.4882378 7.0210801,1.8628727 7.4326107,2.2375076 7.7553223,2.8391736 7.7961617,3.4255098 7.837001,4.011846 7.5980909,4.4949754 7.2624715,4.9239846 6.926852,5.3529939 6.5430248,5.6600556 6.3675629,5.8411775 6.1921011,6.0222994 6.2373816,6.06758 6.4326535,6.0619198 6.6279254,6.0562597 6.9731889,5.9996591 7.4231632,5.8921181 7.8731376,5.7845771 8.4278231,5.6260955 8.8749679,5.4761039 9.3221126,5.3261123 9.6617159,5.184611 10.006979,5.1449906 c 0.345262,-0.03962 0.77322,0.036308 0.987889,0.3067318 0.21467,0.2704239 0.404688,0.8721479 0.339495,1.4316997 -0.06519,0.5595518 -0.359514,1.1595152 -0.614217,1.6689223 C 10.465442,9.0617514 10.250361,9.4805932 9.8683073,9.8824575 9.4862532,10.284322 8.9372283,10.669205 8.3853729,10.986168 7.8335175,11.303132 7.2788319,11.552174 6.5600048,11.704996 5.8411776,11.857817 4.9613869,11.914214 4.1348846,11.854569 3.3083824,11.794925 2.4364523,11.594704 2.012865,11.149332 1.5892776,10.70396 1.3228794,9.6849868 1.2927437,8.9562515 1.2626081,8.2275162 1.4319942,7.5674947 1.6753766,7.0863899 1.918759,6.6052852 2.2540324,6.2700117 2.5884769,6.0742393 2.9229214,5.8784669 3.3111327,5.7902372 3.3507531,5.5864752 3.3903735,5.3827131 3.0960505,5.0600899 2.8017276,4.7374666"
     id="path3"
     sodipodi:nodetypes="ccccccccccccccccsscaasaac"
     inkscape:label="Body"
     inkscape:original-d="M 2.8696483,3.1922713 C 2.9545491,2.9319089 3.03945,2.6715463 3.1243508,2.4111838 3.3564131,2.0149799 3.5900572,1.6160755 3.8205378,1.2225721 c 0.601498,0.00562 1.2376143,0.011567 1.8168778,0.01698 C 6.1029919,1.3586534 6.6095495,1.4882379 7.09771,1.6131162 7.4326107,2.2375076 7.7553223,2.8391736 8.0995395,3.4809346 7.837001,4.011846 7.5980909,4.4949754 7.3354323,5.0261297 6.926852,5.3529938 6.5430248,5.6600556 6.1468206,5.9770189 6.1921011,6.0222994 6.2373816,6.06758 6.2826619,6.1128602 6.6279254,6.0562598 6.9731889,5.9996593 7.3184522,5.9430586 7.8731376,5.7845771 8.4278231,5.6260954 8.9825085,5.467614 9.3221126,5.3261123 9.6617159,5.1846109 10.001319,5.0431098 c 0.350922,0.062261 0.77888,0.1381887 1.05277,0.1867821 0.305179,0.4449712 0.398477,1.0772383 0.509405,1.6131159 C 11.269171,7.4429739 10.974849,8.0429372 10.680525,8.6429055 10.465442,9.0617514 10.250361,9.480593 10.035279,9.8994379 9.4862533,10.284322 8.9372282,10.669205 8.3882028,11.054089 7.8335173,11.303131 7.2788318,11.552174 6.7241462,11.801217 5.8411776,11.857817 4.9613869,11.914214 4.0752402,11.971018 3.3083823,11.794925 2.3455376,11.990623 1.7829176,11.444633 1.5892776,10.70396 1.1057244,9.7417593 1.1037109,8.8466673 1.2626081,8.2275162 1.4319942,7.5674947 1.5961358,6.9279084 1.918759,6.6052852 2.2540324,6.2700117 2.5640053,5.9600387 2.8993802,5.7748856 3.3111327,5.7902372 3.6846964,5.7053364 3.3903735,5.3827131 2.8017276,4.7374666 2.8017276,4.7374666"
     inkscape:path-effect="#path-effect3" />
  <path
     style="display:none;fill:url(#linearGradient5);fill-opacity:1;stroke-width:0.064177"
     d="M 16.33305,44.821875 C 14.368118,44.675475 13.111334,44.50253 11.957999,44.21983 10.203806,43.78985 8.8737136,43.186963 7.937328,42.397391 6.6239301,41.289917 5.4359594,38.316023 5.032745,35.126233 4.9107741,34.161333 4.8952971,32.319763 5.002091,31.478824 5.4433668,28.00405 6.8940852,25.142267 9.038139,23.517047 c 0.3738498,-0.283382 0.978417,-0.630931 1.843194,-1.059599 0.937661,-0.464797 1.355628,-0.708353 1.540248,-0.897531 0.2367,-0.242541 0.253107,-0.28371 0.24925,-0.625408 -0.0066,-0.580295 -0.421802,-1.248499 -1.557572,-2.506373 l -0.484123,-0.53617 0.117819,-2.8973 0.117819,-2.897299 0.302788,-0.86639 c 1.303705,-3.7303862 2.657585,-5.4753058 4.725364,-6.0901818 0.91221,-0.2712551 1.666072,-0.3415898 3.296001,-0.307514 2.769997,0.05791 4.68559,0.4972217 6.224391,1.4274668 2.55757,1.5461182 4.353349,5.130564 3.985121,7.95446 -0.145697,1.11733 -0.462223,1.996404 -1.116353,3.100396 -0.634535,1.070922 -1.3595,1.923595 -3.068081,3.608543 -1.576904,1.555093 -1.708904,1.720982 -1.519852,1.910034 0.130865,0.130865 1.185726,0.09018 2.213382,-0.08536 2.066546,-0.353004 4.787401,-1.087817 8.202547,-2.215234 2.73216,-0.901948 3.174397,-1.016833 4.108586,-1.067338 0.869517,-0.04701 1.583104,0.0782 2.26198,0.396887 0.687064,0.322532 1.105195,0.749325 1.492948,1.523875 0.576755,1.152088 0.851542,2.339191 0.8579,3.7062 0.0087,1.879144 -0.487661,3.421526 -2.24104,6.963205 -1.495957,3.021708 -2.223709,4.143438 -3.56032,5.487748 -2.386616,2.400362 -6.704666,5.002798 -10.111595,6.094134 -1.511271,0.484103 -3.460348,0.866352 -5.419242,1.06281 -0.930759,0.09335 -4.434876,0.175258 -5.166249,0.120767 z"
     id="path4"
     transform="scale(0.26458333)"
     inkscape:label="BodyGradient" />
  <path
     style="display:inline;fill:#4d4d4d;stroke-width:0.264583"
     d="m 3.0111497,4.8450077 c 0.401864,0.00566 0.8942889,-0.050941 1.1546513,-0.090561 0.2603624,-0.03962 0.2886623,-0.06226 0.2999827,-0.1584814 0.01132,-0.096221 0.00566,-0.2660227 -0.01415,-0.3735637 C 4.4318233,4.1148608 4.3978633,4.0695804 4.2252316,3.9478891 4.0526,3.8261978 3.7412969,3.6280957 3.4922544,3.4894244 3.243212,3.350753 3.0564301,3.2715122 2.7734274,3.2064216 2.4904246,3.1413309 2.1112008,3.0903905 1.8819685,3.1186908 c -0.2292323,0.0283 -0.308473,0.1358413 -0.2660226,0.413184 0.04245,0.2773428 0.2065921,0.7244873 0.4443145,0.9820197 0.2377223,0.2575325 0.5490253,0.3254531 0.9508893,0.3311132 z"
     id="path5"
     inkscape:label="Beak"
     inkscape:original-d="m 2.9205888,4.9072683 c 0.4924248,-0.056601 0.9848498,-0.1132009 1.4772746,-0.1698016 0.0283,-0.02264 0.0566,-0.04528 0.084901,-0.067921 C 4.4771047,4.4997444 4.4714453,4.3299427 4.4657832,4.1601411 4.4318237,4.1148605 4.3978634,4.0695803 4.363903,4.0242997 4.0526001,3.8261977 3.7412969,3.6280957 3.4299937,3.4299937 3.2432119,3.3507531 3.0564301,3.2715123 2.8696483,3.1922714 2.4904246,3.1413309 2.1112008,3.0903904 1.7319771,3.03945 1.6527363,3.1469912 1.5734955,3.2545321 1.4942547,3.3620731 1.6583964,3.8092176 1.822538,4.2563621 1.9866796,4.7035063 2.2979827,4.771427 2.6092857,4.8393476 2.9205888,4.9072683 Z"
     inkscape:path-effect="#path-effect5" />
  <path
     style="display:inline;fill:url(#radialGradient31);fill-opacity:1;stroke-width:0.264583"
     d="M 4.6307873,2.7850241 C 4.794587,2.6312386 5.0469134,2.5322121 5.2614197,2.5604413 5.475926,2.5886705 5.6526116,2.7441554 5.7419544,2.924956 c 0.089343,0.1808006 0.091343,0.3869167 0.062327,0.5209923 -0.029016,0.1340756 -0.089049,0.1961108 -0.1650919,0.2181236 -0.076043,0.022013 -0.1680947,0.004 -0.2861616,-0.031017 C 5.234961,3.5980351 5.0908797,3.5460058 4.9658089,3.5089848 4.840738,3.4719638 4.7346781,3.4499514 4.6296188,3.4269384 4.5245595,3.4039255 4.4364481,3.383592 4.4198494,3.2494926 4.4032507,3.1153931 4.4669876,2.9388096 4.6307873,2.7850241 Z"
     id="path6"
     sodipodi:nodetypes="cccccccccc"
     inkscape:label="RightEye"
     inkscape:original-d="m 4.5422606,2.7302651 c 0.2523266,-0.099026 0.5046528,-0.198053 0.7569795,-0.2970796 0.1766859,0.155485 0.3533715,0.3109699 0.5300571,0.4664547 0.002,0.2061164 0.004,0.4122325 0.006,0.6183497 C 5.7752665,3.580025 5.7152329,3.6420597 5.6551988,3.7040948 5.5631466,3.6860847 5.4710947,3.6680747 5.3790426,3.6500646 5.234961,3.5980351 5.0908797,3.5460058 4.9467981,3.4939763 4.840738,3.4719638 4.7346781,3.4499514 4.6286181,3.427939 4.5245595,3.4039255 4.4364481,3.3835921 4.3164416,3.3558982 4.4032507,3.1153931 4.4669876,2.9388096 4.5422606,2.7302651 Z"
     inkscape:path-effect="#path-effect6" />
  <path
     style="display:inline;fill:url(#radialGradient32);stroke-width:0.264583"
     d="M 3.2088147,3.0287131 C 3.0797421,2.9956944 2.9896914,2.9776841 2.9511702,2.9376609 2.9126491,2.8976377 2.9256575,2.8356037 2.9756859,2.710512 3.0257142,2.5854203 3.1127617,2.3972735 3.2243957,2.3371682 c 0.111634,-0.060105 0.2478525,0.00783 0.3268971,0.1659428 0.079044,0.1581104 0.094072,0.3287144 -0.00191,0.4601683 -0.095987,0.1314538 -0.2114908,0.098453 -0.3405635,0.065434 z"
     id="path7"
     sodipodi:nodetypes="ccccccc"
     inkscape:label="LeftEye"
     inkscape:original-d="m 3.169793,3.0137047 c -0.090051,-0.01801 -0.1801017,-0.03602 -0.2701528,-0.054031 0.013009,-0.062036 0.026017,-0.1240701 0.039026,-0.1861052 0.087048,-0.1881482 0.1740955,-0.376295 0.2611438,-0.5644438 0.1362198,0.067938 0.2724382,0.1358758 0.4086576,0.2038138 0.02187,0.2482829 0.036897,0.4188869 0.065609,0.7448477 C 3.4533916,3.0947332 3.3378874,3.0617319 3.169793,3.0137047 Z"
     inkscape:path-effect="#path-effect7" />
  <path
     style="fill:#15852e;fill-opacity:1;stroke-width:0.264583"
     d="m 4.6827768,3.3716048 c -0.00785,-0.056188 7.751e-4,-0.1467461 0.026137,-0.2352707 0.025362,-0.088525 0.066547,-0.1731272 0.1353898,-0.2138586 0.068842,-0.040731 0.1594694,-0.034117 0.2144344,0.039911 0.054965,0.074028 0.063252,0.1417729 0.061164,0.2674404 -0.00209,0.1256675 -0.016876,0.2143178 -0.051994,0.2603412 -0.035118,0.046023 -0.087886,0.033359 -0.1456043,0.020452 -0.057718,-0.012907 -0.1199819,-0.025971 -0.1637534,-0.043565 -0.043772,-0.017593 -0.067928,-0.039264 -0.075774,-0.095451 z"
     id="path24"
     transform="matrix(1.2797555,0,0,1,-1.5848258,-0.06603736)"
     sodipodi:nodetypes="ccccccccc"
     inkscape:original-d="m 4.6663086,3.4059801 c 0.00862,-0.090563 0.017243,-0.1811214 0.025865,-0.2716825 0.042103,-0.086488 0.083288,-0.1710906 0.1263078,-0.2594625 0.094665,0.00691 0.185292,0.013523 0.277938,0.020285 0.017284,0.1412951 0.025571,0.2090396 0.041542,0.3396034 C 5.1178144,3.3554946 5.1030264,3.4441449 5.0855594,3.5488561 5.0327908,3.5361918 4.9800228,3.5235276 4.9272543,3.5108632 4.8645861,3.4977137 4.8023226,3.4846492 4.7392504,3.4714149 4.7147796,3.4494626 4.6906231,3.4277923 4.6663086,3.4059801 Z"
     inkscape:path-effect="#path-effect24"
     inkscape:label="IrisRight" />
  <path
     style="fill:#237822;fill-opacity:1;stroke-width:0.264583"
     d="m 2.9856794,2.9637468 c -0.060846,-0.051648 -0.052356,-0.1195687 -0.030752,-0.1938511 0.021604,-0.074282 0.056322,-0.1549261 0.096306,-0.2051233 0.039984,-0.050197 0.085236,-0.069949 0.1299298,-0.05619 0.044694,0.013759 0.088685,0.060871 0.1096154,0.1630557 0.02093,0.1021846 0.018521,0.2580828 -0.047777,0.3186071 -0.066299,0.060524 -0.1964771,0.025149 -0.2573226,-0.026499 z"
     id="path26"
     sodipodi:nodetypes="ccccccc"
     transform="translate(0.00600339)"
     inkscape:original-d="m 2.9163438,2.9800195 c 0.00849,-0.067921 0.01698,-0.1358414 0.02547,-0.2037622 0.034718,-0.080644 0.069436,-0.1612877 0.1041535,-0.2419308 0.045251,-0.019751 0.090502,-0.039503 0.1357529,-0.059254 0.044138,0.047269 0.088129,0.094381 0.1324137,0.141808 -0.00242,0.1569426 -0.00483,0.3128408 -0.00725,0.4692646 C 3.1767036,3.0507694 3.046525,3.0153948 2.9163438,2.9800195 Z"
     inkscape:path-effect="#path-effect27"
     inkscape:label="IrisLeft" />
  <path
     style="fill:#055312;fill-opacity:1;stroke-width:0.264583"
     d="M 4.7346542,3.0311392 C 4.707752,3.0097346 4.6695458,3.0012441 4.6341708,3.009734 c -0.035375,0.00849 -0.067921,0.033961 -0.094856,0.07774 -0.026935,0.04378 -0.048261,0.1058684 -0.047189,0.1685225 0.00107,0.062654 0.024539,0.1258693 0.065249,0.1636065 0.04071,0.037737 0.09865,0.049986 0.1464464,0.027659 0.047797,-0.022327 0.085445,-0.079229 0.1013891,-0.1331505 0.015944,-0.053922 0.010183,-0.1048621 -0.00266,-0.1522548 -0.012845,-0.047393 -0.040991,-0.1093132 -0.067893,-0.1307179 z"
     id="path36"
     inkscape:path-effect="#path-effect36"
     inkscape:original-d="m 4.7459569,3.0182248 c -0.038205,-0.00849 -0.076411,-0.016981 -0.1146162,-0.025471 -0.032545,0.02547 -0.065091,0.050941 -0.097636,0.076411 -0.021326,0.062089 -0.042651,0.124178 -0.063977,0.186267 0.023469,0.063219 0.046936,0.1264344 0.070407,0.1896585 0.057949,0.01225 0.115889,0.024498 0.1738334,0.036748 C 4.7516165,3.4249356 4.7892653,3.3680333 4.8269142,3.3111309 4.8211532,3.2601903 4.8153922,3.2092498 4.8096312,3.1583094 4.8073812,3.1064284 4.7615562,3.052544 4.7459569,3.0182248 Z"
     sodipodi:nodetypes="cssscsssc" />
  <path
     style="fill:#0a4b0e;fill-opacity:1;stroke-width:0.264583"
     d="m 3.0314242,2.8946008 c -0.00771,-0.032982 -0.00371,-0.089014 0.00429,-0.1310376 0.008,-0.042024 0.020011,-0.07004 0.040546,-0.089962 0.020535,-0.019922 0.050377,-0.032068 0.076439,-0.029086 0.026062,0.00298 0.048589,0.020993 0.058853,0.061516 0.010264,0.040523 0.00826,0.1035587 -0.00244,0.154501 -0.010701,0.050942 -0.030104,0.089792 -0.063038,0.097338 -0.032935,0.00755 -0.1069415,-0.030287 -0.1146553,-0.063269 z"
     id="path37"
     inkscape:path-effect="#path-effect37"
     inkscape:original-d="m 3.0197081,2.9176503 c 0.004,-0.056032 0.008,-0.1120634 0.012007,-0.168095 0.012007,-0.028016 0.024013,-0.056032 0.03602,-0.084048 0.024979,-0.021862 0.058905,-0.023975 0.088501,-0.03602 0.022528,0.018011 0.045055,0.036021 0.067583,0.054031 -0.002,0.063036 -0.004,0.1260715 -0.006,0.1891073 -0.019402,0.038849 -0.038805,0.077698 -0.058207,0.1165461 -0.074098,0.030294 -0.1204739,-0.061589 -0.139904,-0.071521 z"
     sodipodi:nodetypes="ccscsscc" />
  <path
     style="fill:#666666;fill-opacity:1;stroke-width:0.264583"
     d="m 4.3554131,3.3535831 c 0.1471612,0.00849 0.2943226,0.01698 0.4853498,0.030423 0.1910272,0.013443 0.3850243,0.028635 0.5926952,0.1133647 0.2076709,0.08473 0.2861175,0.1678461 0.2597208,0.2379624 C 5.6667823,3.8054489 5.5298734,3.8007282 5.328942,3.7851633 5.1280105,3.7695983 4.8902881,3.7441279 4.7346366,3.7129976 4.5789851,3.6818672 4.5054045,3.6450769 4.4445589,3.5870612 4.3837132,3.5290455 4.3356028,3.4498048 4.2874924,3.3705641"
     id="path34"
     inkscape:path-effect="#path-effect34"
     inkscape:original-d="m 4.3554131,3.3535831 c 0.1471612,0.00849 0.2943226,0.01698 0.4414843,0.02547 0.2348927,0.018395 0.4288898,0.033588 0.7046769,0.055185 0.1395547,0.147862 0.2180013,0.2309783 0.3565831,0.3778095 -0.1913751,-0.0066 -0.328284,-0.01132 -0.4924248,-0.016979 C 5.1280107,3.7695968 4.8902881,3.7441277 4.6525658,3.7186576 4.5789852,3.681867 4.5054046,3.6450767 4.4318237,3.6082864 4.3837132,3.5290455 4.3356027,3.4498049 4.2874924,3.3705641"
     sodipodi:nodetypes="cccccccc"
     inkscape:label="LowerEyelidRight" />
  <path
     style="fill:#666666;fill-opacity:1;stroke-width:0.264583"
     d="M 3.3945175,3.2145437 C 3.5161258,3.203567 3.537854,3.1197494 3.5232331,3.0685225 3.5086123,3.0172955 3.4576412,2.9986571 3.3580616,2.9686992 3.258482,2.9387414 3.1102893,2.8974628 3.0141659,2.9177587 2.9180426,2.9380545 2.8739882,3.019924 2.9627048,3.0917906 c 0.088717,0.071867 0.3102043,0.1337299 0.4318127,0.1227531 z"
     id="path35"
     inkscape:path-effect="#path-effect35"
     inkscape:original-d="M 3.4943978,3.2873841 C 3.5161258,3.203567 3.537854,3.1197494 3.5595817,3.0359334 3.5086123,3.0172955 3.4576412,2.9986571 3.4066718,2.9800192 3.258482,2.9387414 3.1102893,2.8974628 2.9620973,2.8561844 2.9180426,2.9380545 2.8739882,3.019924 2.8299337,3.1017937 3.0514215,3.1636571 3.2729091,3.2255205 3.4943978,3.2873841 Z"
     sodipodi:nodetypes="cccccc"
     inkscape:label="LowerEyelidLeft" />
  <path
     style="display:none;fill:#5b5b5b;fill-opacity:1;stroke-width:0.264583"
     d="M 10.966358,7.5646648 C 10.691845,7.9127584 10.14282,8.608945 9.7805765,9.0334492 9.4183329,9.4579535 9.2428712,9.6107749 9.1013698,9.7494462 8.9598684,9.8881175 8.8523273,10.012639 8.6346111,10.193619 8.4168949,10.374599 8.0882195,10.612605 7.723146,10.785236 7.3580724,10.957868 6.9562088,11.065408 6.4977442,11.059748 6.0392797,11.054088 5.5242146,10.935227 5.2468718,10.434312 4.9695291,9.9333973 4.9299088,9.050431 4.5648344,8.5240448 4.19976,7.9976586 3.5092351,7.8278574 2.9771895,7.8080472 2.4451439,7.7882369 2.080256,7.9153948 1.8051595,8.1528467 1.5300631,8.3902985 1.3849251,8.6855795 1.3416378,9.0875334 c -0.043287,0.4019539 0.03053,0.7513556 0.085913,0.9967116 0.055383,0.245357 0.078024,0.318938 0.1317945,0.460439 0.053771,0.141502 0.1386715,0.350924 0.3141327,0.602796 0.1754611,0.251872 0.4414849,0.546196 1.0499409,0.679208 0.608456,0.133011 1.5593452,0.104711 2.7492212,0.0087 1.189876,-0.09606 1.5382712,-0.136002 2.1976677,-0.387875 C 8.5297045,11.195592 8.9598683,10.793728 9.3192819,10.434314 9.6786955,10.0749 9.9673582,9.757937 10.18244,9.5202148 10.397522,9.2824926 10.539024,9.1240107 10.697505,8.9428889 10.855987,8.761767 11.031448,8.5580054 11.133329,8.2014218 11.23521,7.8448381 11.26351,7.3354332 11.26917,7.1458212 c 0.0057,-0.189612 -0.01132,-0.059431 -0.01981,0.00566 -0.0085,0.065091 -0.0085,0.065091 -0.283002,0.4131841 z"
     id="path38"
     inkscape:path-effect="#path-effect39"
     inkscape:original-d="M 11.240871,7.2165712 C 10.691845,7.9127582 10.14282,8.6089449 9.5937947,9.3051319 9.4183328,9.4579534 9.2428712,9.6107749 9.0674094,9.7635964 8.9598684,9.8881175 8.8523275,10.012639 8.7447862,10.13716 8.4283178,10.390373 8.0882197,10.612605 7.7599364,10.850327 7.3580725,10.957868 6.9562087,11.065408 6.5543448,11.172949 6.0392797,11.054088 5.5242146,10.935227 5.0091495,10.816366 4.9695291,9.9333973 4.9299088,9.050431 4.8902883,8.1674606 4.19976,7.9976586 3.5092351,7.8278574 2.8187078,7.6580556 2.4451439,7.7882369 2.080256,7.9153948 1.6980167,8.0485994 1.5300631,8.3902985 1.3849251,8.6855795 1.2055919,9.0504302 c 0.092758,0.4390572 0.1665757,0.7884588 0.2547024,1.2055918 0.02264,0.07358 0.04528,0.147161 0.067921,0.220742 0.084901,0.209422 0.1698017,0.418844 0.2547025,0.628266 0.2660213,0.294322 0.5320453,0.588646 0.7980679,0.882969 0.9508894,-0.0283 1.9017786,-0.0566 2.8526682,-0.0849 C 6.8625162,11.73928 7.2109114,11.699337 8.0995401,11.597457 8.5297043,11.195592 8.9598685,10.793728 9.3900327,10.391863 9.6786955,10.0749 9.9673582,9.757937 10.256021,9.440974 c 0.141501,-0.1584816 0.283003,-0.3169631 0.424504,-0.4754448 0.175462,-0.203762 0.350923,-0.4075239 0.526385,-0.611286 0.0283,-0.5094051 0.0566,-1.01881 0.0849,-1.5282151 -0.01698,0.1301811 -0.03396,0.260362 -0.05094,0.3905431 z"
     sodipodi:nodetypes="sccczzzcccccccccsssccsss" />
</svg>
